<?xml version="1.0" encoding="UTF-8" standalone="no"?>
<!-- Generator: Adobe Illustrator 16.0.1, SVG Export Plug-In . SVG Version: 6.00 Build 0)  -->

<svg
   xmlns:dc="http://purl.org/dc/elements/1.1/"
   xmlns:cc="http://creativecommons.org/ns#"
   xmlns:rdf="http://www.w3.org/1999/02/22-rdf-syntax-ns#"
   xmlns:svg="http://www.w3.org/2000/svg"
   xmlns="http://www.w3.org/2000/svg"
   xmlns:sodipodi="http://sodipodi.sourceforge.net/DTD/sodipodi-0.dtd"
   xmlns:inkscape="http://www.inkscape.org/namespaces/inkscape"
   version="1.1"
   id="Calque_1"
   x="0px"
   y="0px"
   width="512px"
   height="512px"
   viewBox="0 0 512 512"
   enable-background="new 0 0 512 512"
   xml:space="preserve"
   sodipodi:docname="ship.svg"
   inkscape:version="0.92.1 r15371"><metadata
     id="metadata9"><rdf:RDF><cc:Work
         rdf:about=""><dc:format>image/svg+xml</dc:format><dc:type
           rdf:resource="http://purl.org/dc/dcmitype/StillImage" /></cc:Work></rdf:RDF></metadata><defs
     id="defs7" /><sodipodi:namedview
     pagecolor="#ffffff"
     bordercolor="#666666"
     borderopacity="1"
     objecttolerance="10"
     gridtolerance="10"
     guidetolerance="10"
     inkscape:pageopacity="0"
     inkscape:pageshadow="2"
     inkscape:window-width="1920"
     inkscape:window-height="1138"
     id="namedview5"
     showgrid="false"
     inkscape:zoom="5.6568542"
     inkscape:cx="213.1335"
     inkscape:cy="239.7064"
     inkscape:window-x="1912"
     inkscape:window-y="-8"
     inkscape:window-maximized="1"
     inkscape:current-layer="Calque_1" /><path
     d="M 271.71339,275.93092 261.98239,286.76872 H 217.25599 V 275.93092 H 206.70339 L 213.87579,260.88172 H 288.56319 L 303.19919,275.93092 Z M 225.87639,275.52712 C 223.56379,275.52712 221.69319,277.40352 221.69319,279.71632 221.69319,282.02812 223.56379,283.90432 225.87639,283.90432 228.19399,283.90432 230.06219,282.02812 230.06219,279.71632 230.06219,277.40352 228.19399,275.52712 225.87639,275.52712 Z M 236.31619,275.52712 C 234.00559,275.52712 232.12479,277.40352 232.12479,279.71632 232.12479,282.02812 234.00559,283.90432 236.31619,283.90432 238.63019,283.90432 240.50419,282.02812 240.50419,279.71632 240.50439,277.40352 238.63039,275.52712 236.31619,275.52712 Z M 246.75259,275.52712 C 244.44559,275.52712 242.57379,277.40352 242.57379,279.71632 242.57379,282.02812 244.44539,283.90432 246.75259,283.90432 249.06779,283.90432 250.94419,282.02812 250.94419,279.71632 250.94419,277.40352 249.06779,275.52712 246.75259,275.52712 Z"
     id="path2"
     inkscape:connector-curvature="0"
     style="fill:#536c67;stroke-width:0.2" /></svg>